<svg fill="none" height="46" viewBox="0 0 80 46" width="80" xmlns="http://www.w3.org/2000/svg"><g fill="#000"><rect height="40" rx="2.22222" transform="matrix(0 1 -1 0 40.655182 -39.344818)" width="4.44445" x="40" y=".655182"/><rect height="29.5581" rx="2.22222" transform="matrix(0 1 -1 0 67.321682 -66.011318)" width="4.44445" x="66.6665" y=".655182"/><rect height="44.4445" rx="2.22222" transform="matrix(0 1 -1 0 120.6552 -39.3448)" width="4.44445" x="80" y="40.6552"/><rect height="44.4445" rx="2.22222" width="4.44445" x="75.5554" y=".655243"/><rect height="31.1111" rx="2.22222" width="4.44445" x="62.2222" y=".655182"/><rect height="35.5555" rx="2.22222" width="4.44445" x="48.8889" y="9.54416"/><path d="m37.7778 27.1396c1.2273 0 2.2222.9949 2.2222 2.2222s-.9949 2.2223-2.2222 2.2223h-22.2223c-1.2273 0-2.2222-.995-2.2222-2.2223s.9949-2.2222 2.2222-2.2222z"/><rect height="31.1112" rx="2.22222" transform="matrix(-1 0 0 -1 8.88868 90.1994)" width="4.44445" x="4.44434" y="45.0997"/><rect height="15.5555" rx="2.22222" transform="matrix(-1 0 0 -1 35.5556 63.1682)" width="4.44445" x="17.7778" y="31.5841"/><rect height="17.7777" rx="2.22222" transform="matrix(-1 0 0 -1 80 36.8658)" width="4.44445" x="40" y="18.4329"/><rect height="17.7778" rx="2.22222" transform="matrix(0 -1 1 0 3.7892 40.6552)" width="4.44445" x="22.2222" y="18.433"/><rect height="17.7778" rx="2.22222" transform="matrix(-1 0 0 -1 80 90.1992)" width="4.44445" x="40" y="45.0996"/><rect height="40" rx="2.22222" transform="matrix(0 1 -1 0 80.6552 .6552)" width="4.44445" x="40" y="40.6552"/></g></svg>