<svg fill="none" height="69" viewBox="0 0 81 69" width="81" xmlns="http://www.w3.org/2000/svg" xmlns:xlink="http://www.w3.org/1999/xlink"><mask id="a" fill="#fff"><path clip-rule="evenodd" d="m19.4126 67.1797h-15.92017c.00001-4.3962 3.56385-7.96 7.96007-7.96 4.3962 0 7.9601 3.5638 7.9601 7.96z" fill="#fff" fill-rule="evenodd"/></mask><mask id="b" fill="#fff"><path clip-rule="evenodd" d="m18.634 7.89646c-2.9614-1.41951-6.6189-.90151-9.07204 1.55334-2.45316 2.4548-2.96867 6.1126-1.54719 9.0731-.78993-.3787-1.53033-.8952-2.18514-1.5495-3.10966-3.1076-3.11138-8.14759-.00384-11.25726 3.10754-3.10966 8.14761-3.11138 11.25721-.00384.6549.65439 1.1719 1.39446 1.551 2.18416z" fill="#fff" fill-rule="evenodd"/></mask><mask id="c" fill="#fff"><path clip-rule="evenodd" d="m64.2791 3.49858h15.9201c0 4.39623-3.5638 7.96002-7.96 7.96002-4.3963 0-7.9601-3.5638-7.9601-7.96002z" fill="#fff" fill-rule="evenodd"/></mask><g fill="#000"><circle cx="11.4525" cy="11.4593" r="7.46007" stroke="#000"/><path d="m3.99243 11.9593h14.9201v38.8003h-14.9201z" stroke="#000"/><path clip-rule="evenodd" d="m19.4126 67.1797h-15.92017c.00001-4.3962 3.56385-7.96 7.96007-7.96 4.3962 0 7.9601 3.5638 7.9601 7.96z" fill-rule="evenodd"/><path d="m3.49243 67.1797h-1v1h1zm15.92017 0v1h1v-1zm-15.92017 1h15.92017v-2h-15.92017zm1-1c.00001-3.8439 3.11614-6.96 6.96007-6.96v-2c-4.9485 0-8.96006 4.0115-8.96007 8.96zm6.96007-6.96c3.8439 0 6.9601 3.1161 6.9601 6.96h2c0-4.9485-4.0116-8.96-8.9601-8.96z" mask="url(#a)"/></g><path clip-rule="evenodd" d="m18.634 7.89646c-2.9614-1.41951-6.6189-.90151-9.07204 1.55334-2.45316 2.4548-2.96867 6.1126-1.54719 9.0731-.78993-.3787-1.53033-.8952-2.18514-1.5495-3.10966-3.1076-3.11138-8.14759-.00384-11.25726 3.10754-3.10966 8.14761-3.11138 11.25721-.00384.6549.65439 1.1719 1.39446 1.551 2.18416z" fill="#fff" fill-rule="evenodd"/><g fill="#000"><path d="m18.634 7.89646-.4322.90176 2.5649 1.22938-1.2312-2.56399zm-10.61923 10.62644-.43224.9017 2.56487 1.2295-1.23116-2.5641zm2.25453-8.3662c2.1439-2.14538 5.3419-2.60027 7.9325-1.35848l.8645-1.80352c-3.3322-1.59722-7.4492-1.01611-10.21169 1.74824zm-1.35306 7.9333c-1.24352-2.5898-.7908-5.788 1.35306-7.9333l-1.41469-1.41376c-2.76244 2.76436-3.34075 6.88176-1.7413 10.21276zm-.46922-.4689c-.68947-.3305-1.33671-.7817-1.91052-1.3551l-1.41373 1.4147c.7358.7353 1.56937 1.3171 2.45976 1.7439zm-1.91052-1.3551c-2.71901-2.7171-2.72051-7.12399-.00336-9.84299l-1.4147-1.41373c-3.49793 3.50032-3.49599 9.17352.00433 12.67142zm-.00336-9.84299c2.71715-2.719 7.12406-2.72051 9.84306-.00336l1.4137-1.4147c-3.5003-3.49793-9.17353-3.49599-12.67146.00433zm9.84306-.00336c.5738.57344 1.0254 1.22039 1.3564 1.90966l1.8029-.8657c-.4274-.89013-1.0098-1.72333-1.7456-2.45866z" mask="url(#b)"/><circle cx="72.2392" cy="59.219" r="7.46007" stroke="#000" transform="matrix(-1 0 0 -1 144.4784 118.438)"/><path d="m79.6992 58.719h14.9201v38.8003h-14.9201z" stroke="#000" transform="matrix(-1 0 0 -1 159.3984 117.438)"/><path clip-rule="evenodd" d="m64.2791 3.49858h15.9201c0 4.39623-3.5638 7.96002-7.96 7.96002-4.3963 0-7.9601-3.5638-7.9601-7.96002z" fill-rule="evenodd"/><path d="m80.1992 3.49858h1v-1h-1zm-15.9201 0v-1h-1v1zm15.9201-1h-15.9201v2h15.9201zm-1 1c0 3.84394-3.1161 6.96002-6.96 6.96002v2c4.9485 0 8.96-4.01151 8.96-8.96002zm-6.96 6.96002c-3.844 0-6.9601-3.11608-6.9601-6.96002h-2c0 4.94851 4.0115 8.96002 8.9601 8.96002z" mask="url(#c)"/><g stroke="#000"><path d="m27.5328 3.49858v11.57832l28.9457 28.9457v-11.5783z"/><path d="m27.3733 26.6552v11.5783l28.9457 28.9457v-11.5783z"/></g></g></svg>