<svg fill="none" height="81" viewBox="0 0 81 81" width="81" xmlns="http://www.w3.org/2000/svg" xmlns:xlink="http://www.w3.org/1999/xlink"><mask id="a" fill="#fff"><path clip-rule="evenodd" d="m43.4726 80.1798c14.7232 0 27.6991-7.0362 35.3335-17.7283.5631-.7886.4302-1.8662-.2756-2.53l-.9582-.9012c-.9288-.8735-2.4256-.6643-3.1594.3785-6.636 9.4305-18.0159 15.6503-30.9404 15.6503-20.4763 0-37.07557-15.6116-37.07557-34.8694s16.59927-34.86928 37.07557-34.86928c12.9634 0 24.373 6.25728 31.0002 15.73558.7322 1.0472 2.2327 1.2594 3.1635.384l.9587-.9016c.7043-.6624.8383-1.737.2788-2.5255-7.6253-10.74532-20.6343-17.823151-35.4011-17.823151-23.4892 0-42.53095 17.908651-42.53095 39.999951 0 22.0914 19.04175 40.0001 42.53095 40.0001z" fill="#fff" fill-rule="evenodd"/></mask><g fill="#000"><path clip-rule="evenodd" d="m12.6619 44.3064h8.1702c.5929.0712 1.1914-.0151 1.7284-.2398.8372-.3335 1.4942-.989 1.7954-1.8014l11.7811-20.7396 13.6086 47.7656c.3533 1.2403 1.4722 2.0954 2.7504 2.2361 1.3955.3117 2.8927-.2826 3.6003-1.5282l15.1465-26.6643h6.4627c1.7873 0 3.2362-1.3626 3.2362-3.0436v-.3005c0-1.6809-1.4489-3.0435-3.2362-3.0435h-8.1701c-.593-.0713-1.1914.015-1.7285.2397-.8372.3335-1.4942.989-1.7954 1.8014l-11.7812 20.7399-13.6087-47.7659c-.3533-1.2401-1.472-2.09515-2.75-2.23601-1.3955-.31179-2.8928.28241-3.6004 1.52821l-15.1465 26.6642h-6.4628c-1.7873 0-3.23612 1.3627-3.23612 3.0436v.3005c0 1.6809 1.44882 3.0436 3.23612 3.0436z" fill-rule="evenodd"/><path clip-rule="evenodd" d="m43.4726 80.1798c14.7232 0 27.6991-7.0362 35.3335-17.7283.5631-.7886.4302-1.8662-.2756-2.53l-.9582-.9012c-.9288-.8735-2.4256-.6643-3.1594.3785-6.636 9.4305-18.0159 15.6503-30.9404 15.6503-20.4763 0-37.07557-15.6116-37.07557-34.8694s16.59927-34.86928 37.07557-34.86928c12.9634 0 24.373 6.25728 31.0002 15.73558.7322 1.0472 2.2327 1.2594 3.1635.384l.9587-.9016c.7043-.6624.8383-1.737.2788-2.5255-7.6253-10.74532-20.6343-17.823151-35.4011-17.823151-23.4892 0-42.53095 17.908651-42.53095 39.999951 0 22.0914 19.04175 40.0001 42.53095 40.0001z" fill-rule="evenodd"/><path d="m74.4727 21.046-.8195.573zm3.1635.384-.6851-.7285zm.9587-.9016.6851.7284zm.2788-2.5255-.8155.5787zm-4.4608 41.3959-.8178-.5755zm4.3932 3.0527-.8138-.5811zm-.2756-2.53-.6851.7284zm-.5382 1.9489c-7.4453 10.4272-20.117 17.3094-34.5197 17.3094v2c15.0437 0 28.3238-7.1902 36.1474-18.1472zm-1.1051-2.1216.9582.9011 1.3702-1.4569-.9581-.9011zm-33.4147 16.3003c13.2472 0 24.9334-6.3759 31.7582-16.0749l-1.6356-1.1509c-6.4472 9.1621-17.5208 15.2258-30.1226 15.2258zm-38.07557-35.8694c0 19.867 17.10567 35.8694 38.07557 35.8694v-2c-19.9827 0-36.07557-15.2208-36.07557-33.8694zm38.07557-35.86928c-20.9699 0-38.07557 16.00238-38.07557 35.86928h2c0-18.6486 16.09287-33.86928 36.07557-33.86928zm31.8198 16.16258c-6.816-9.7483-18.5327-16.16258-31.8198-16.16258v2c12.6398 0 23.7422 6.10018 30.1807 15.30858zm3.029 1.6854.9587-.9016-1.3702-1.4569-.9587.9016zm-34.8487-20.97865c14.4453 0 27.1493 6.92294 34.5856 17.40185l1.631-1.1574c-7.8143-11.01173-21.1284-18.244451-36.2166-18.244451zm-41.53095 38.99995c0-21.4821 18.53535-38.99995 41.53095-38.99995v-2.000001c-23.9828 0-43.5309496 18.299451-43.5309496 40.999951zm41.53095 39.0001c-22.9956 0-41.53095-17.5179-41.53095-39.0001h-1.9999996c0 22.7006 19.5481496 41.0001 43.5309496 41.0001zm30.1806-57.5608c1.0529 1.506 3.2577 1.8659 4.6681.5394l-1.3702-1.4569c-.4511.4243-1.2474.3599-1.6588-.2285zm5.6268-.3622c1.0488-.9864 1.2726-2.6159.4092-3.8326l-1.631 1.1574c.2556.3603.2113.88-.1484 1.2183zm-1.0225 37.0351c-1.4074-1.3236-3.607-.9684-4.6624.5314l1.6356 1.1509c.4122-.5857 1.2063-.6489 1.6565-.2254zm1.3625 4.7407c.8689-1.2169.6467-2.851-.4044-3.8396l-1.3702 1.4569c.3605.3391.4041.8602.1469 1.2205z" mask="url(#a)"/></g></svg>