<svg fill="none" height="100" viewBox="0 0 101 100" width="101" xmlns="http://www.w3.org/2000/svg"><g stroke="#fff" stroke-width="4"><rect height="96" rx="8" width="96" x="2.13135" y="2"/><path d="m61.4647 78.0357v-10.32c.1-1.2715-.0718-2.5498-.504-3.7498-.5265-1.462.2419-3.4802 1.7601-3.8116 7.0508-1.539 13.4105-5.6875 13.4105-18.0652-.0002-1.6109-.2685-3.1951-.7808-4.6925-1.2386-3.6209-2.038-7.653-2.441-11.4587-.0699-.6598-.1884-1.3154-.3555-1.9613-.3391-1.3112-1.3662-2.1233-2.6998-1.8868-1.0499.1862-2.5232.6231-4.4597 1.5834-2.5935 1.2861-5.5247 1.796-8.3925 1.4008-3.2317-.4453-6.5096-.4453-9.7413 0-2.8678.3952-5.799-.1147-8.3925-1.4008-.8077-.4005-1.5348-.71-2.1843-.9482-2.6266-.9635-5.147.7947-5.3648 3.584-.2804 3.5906-1.0315 7.3635-2.2834 10.7405-.6018 1.6235-.9137 3.3563-.9044 5.1196 0 12.314 6.3878 16.4401 13.4572 18.035 1.5136.3414 2.2615 2.3469 1.7303 3.8048-.4318 1.1853-.6093 2.4483-.5208 3.7068v10.32m-5.3539-7.1076c.5524.0002 1.1392-.0355 1.7639-.1118 1.2365-.1511 1.3593-1.7366.2144-2.2273-1.508-.6462-3.619 2.3383-1.9783 2.3391z" stroke-linecap="round" stroke-linejoin="round"/></g></svg>