<svg fill="none" height="100" viewBox="0 0 100 100" width="100" xmlns="http://www.w3.org/2000/svg"><rect height="96" rx="8" stroke="#fff" stroke-width="4" width="96" x="2" y="2"/><g fill="#fff"><path d="m60.6666 39.3333c4.2435 0 8.3132 1.6857 11.3137 4.6863 3.0006 3.0006 4.6863 7.0702 4.6863 11.3137v18.6667h-10.6666v-18.6667c0-1.4145-.5619-2.771-1.5621-3.7712s-2.3568-1.5621-3.7713-1.5621-2.771.5619-3.7712 1.5621-1.5621 2.3567-1.5621 3.7712v18.6667h-10.6667v-18.6667c0-4.2435 1.6857-8.3131 4.6863-11.3137s7.0703-4.6863 11.3137-4.6863z"/><path d="m34 42h-10.6666v32h10.6666z"/><path d="m28.6667 34c2.9455 0 5.3333-2.3878 5.3333-5.3334 0-2.9455-2.3878-5.3333-5.3333-5.3333s-5.3333 2.3878-5.3333 5.3333c0 2.9456 2.3878 5.3334 5.3333 5.3334z"/></g></svg>