<svg fill="none" height="381" viewBox="0 0 391 381" width="391" xmlns="http://www.w3.org/2000/svg"><path d="m240.066 230.05h150v150h-150z" fill="#222"/><path d="m281.034 269.442h66.9614v67.8955h-66.9614z" fill="#fff"/><path d="m275.049 255.05h9.98351v99.7747h-9.98351z" fill="#c8501c"/><path d="m364.901 334.87h9.97747v99.8351h-9.97747z" fill="#c8501c" transform="matrix(0 1 -1 0 699.771 -30.031)"/><path d="m0 0h9.98351v99.7747h-9.98351z" fill="#c8501c" transform="matrix(-.999988 -.00489179 .00489771 -.999988 354.643 355.05)"/><path d="m0 0h9.97748v99.8351h-9.97748z" fill="#c8501c" transform="matrix(.00489775 -.999988 .999988 .00489183 265.183 274.792)"/><path d="m0 0h39.4267v40.8182h-39.4267z" fill="#222" transform="matrix(.70732 -.706893 .70732 .706893 286.745 304.647)"/><ellipse cx="314.846" cy="305.139" fill="#fff" rx="6.73887" ry="6.7348"/><path d="m.065918 230.044h150v150h-150z" fill="#faf8f8"/><path d="m41.0342 269.437h66.9613v67.8955h-66.9613z" fill="#c8501c"/><g fill="#222"><path d="m35.0493 255.044h9.9835v99.7747h-9.9835z"/><path d="m124.901 334.864h9.97748v99.835h-9.97748z" transform="matrix(0 1 -1 0 459.765 209.963)"/><path d="m0 0h9.9835v99.7747h-9.9835z" transform="matrix(-.999988 -.00489179 .0048977 -.999988 114.643 355.044)"/><path d="m0 0h9.97748v99.835h-9.97748z" transform="matrix(.00489775 -.999988 .999988 .00489184 25.1831 274.786)"/></g><path d="m0 0h39.4267v40.8182h-39.4267z" fill="#fff" transform="matrix(.70732 -.706893 .70732 .706893 46.7451 304.642)"/><ellipse cx="74.8463" cy="305.133" fill="#000" rx="6.73886" ry="6.7348"/><path d="m281.64 14.7378h66.896v67.8292h-66.896z" fill="#c8501c"/><g fill="#222"><path d="m275.661.358887h9.97375v99.6773h-9.97375z"/><path d="m365.425 80.1006h9.96773v99.7376h-9.96773z" transform="matrix(0 1 -1 0 445.5256 -285.3244)"/><path d="m0 0h9.97377v99.6773h-9.97377z" transform="matrix(-.999988 -.00489178 .00489771 -.999988 355.177 100.261)"/><path d="m0 0h9.96773v99.7376h-9.96773z" transform="matrix(.00489775 -.999988 .999988 .00489183 265.804 20.0811)"/></g><path d="m0 0h39.3882v40.7783h-39.3882z" fill="#fff" transform="matrix(.70732 -.706893 .70732 .706893 287.345 49.9077)"/><ellipse cx="315.418" cy="50.3986" fill="#c8501c" rx="6.73228" ry="6.72821"/><g fill="#222"><path d="m251.761 138.161v-.514c0-.098.049-.147.147-.147h.404c.514-.036 1.04-.055 1.579-.055.539-.012 1.028-.079 1.469-.202 1.004-.293 1.506-1.027 1.506-2.201v-19.339c0-1.211-.716-1.981-2.149-2.311-.404-.086-.814-.159-1.23-.221h-.386c-.098 0-.147-.049-.147-.146v-.441c0-.098.049-.146.147-.146h17.464c.221 0 .38.042.478.128.098.073.159.245.183.514l.331 5.32c0 .123-.092.184-.276.184-.183 0-.318-.055-.404-.165-.073-.123-.171-.569-.293-1.34-.111-.77-.319-1.412-.625-1.926s-.845-.838-1.616-.972h-7.657c-.16 0-.239.079-.239.238v9.486c0 .122.061.183.183.183h6.354c1.641 0 2.461-.954 2.461-2.862 0-.098.049-.147.147-.147h.441c.098 0 .147.049.147.147v7.853c0 .098-.049.147-.147.147h-.441c-.098 0-.147-.049-.147-.147 0-1.811-.526-2.856-1.579-3.138-.294-.073-.606-.11-.937-.11h-6.299c-.122 0-.183.061-.183.184v8.935c0 .917.422 1.437 1.267 1.559.245.037.502.056.771.056h6.115c1.261 0 2.241-.557 2.939-1.67.501-.795.808-1.706.918-2.734.036-.342.22-.514.551-.514.147 0 .22.08.22.239l-.606 6.165c-.073.171-.159.257-.257.257h-20.457c-.098 0-.147-.049-.147-.147z"/><path d="m289.608 132.528-.036-3.871c0-1.578-.135-2.685-.404-3.321-.27-.636-.612-1.113-1.029-1.431-.416-.331-.979-.496-1.689-.496-.698 0-2.185.551-4.463 1.652-.306.183-.465.354-.477.513v9.871c0 1.236.661 1.945 1.983 2.129.576.085.863.226.863.422 0 .183-.061.287-.183.312h-8.19c-.123-.025-.184-.111-.184-.257 0-.233.288-.392.863-.477 1.322-.184 1.983-.893 1.983-2.129v-10.531c0-.514-.281-.869-.844-1.064-.245-.086-.509-.153-.79-.202-.282-.061-.508-.116-.68-.165-.159-.049-.263-.092-.312-.129-.036-.049-.055-.14-.055-.275 0-.147.092-.269.276-.367l4.682-2.202c.147-.073.239-.11.276-.11.208 0 .312.147.312.441v2.862c.037.122.086.183.147.183.073 0 .337-.11.79-.33 1.052-.526 2.111-1.033 3.176-1.523 1.066-.489 1.947-.734 2.645-.734 2.828 0 4.242 2.575 4.242 7.725l-.165 5.357v1.064c0 .954.477 1.578 1.432 1.872.404.134.79.232 1.157.293.379.049.624.098.734.147.123.049.184.147.184.294 0 .146-.061.232-.184.257h-8.851c-.122-.025-.183-.111-.183-.257 0-.233.287-.392.863-.477 1.31-.184 1.965-.942 1.965-2.275.097-.612.146-1.536.146-2.771z"/><path d="m311.92 123.501c0 .856-.495 1.284-1.487 1.284-.502 0-.931-.14-1.286-.422-.342-.293-.612-.538-.808-.733-.183-.208-.379-.398-.587-.569-.882-.722-1.959-.801-3.232-.239-1.261.563-2.234 1.762-2.92 3.596-.38 1.016-.569 2.025-.569 3.028 0 2.152.489 3.914 1.469 5.284.979 1.358 2.479 2.036 4.499 2.036 1.506 0 2.859-.672 4.058-2.018.368-.404.588-.605.661-.605.074 0 .153.036.239.11.086.073.129.183.129.33 0 .135-.037.239-.111.312-1.873 2.605-4.229 3.908-7.07 3.908-2.056 0-3.746-.765-5.068-2.294-1.31-1.528-1.965-3.278-1.965-5.247.012-3.645.894-6.269 2.644-7.871 1.543-1.407 3.741-2.11 6.593-2.11 1.763 0 2.932.177 3.508.532.575.355.979.801 1.212 1.339.061.123.091.239.091.349z"/><path d="m325.822 125.152c-.147-.024-.361-.104-.643-.238-1.016-.465-1.812-.697-2.387-.697-.576 0-1.182.36-1.818 1.082-.625.71-.937 1.352-.937 1.927v8.293c0 .917.533 1.529 1.598 1.834.465.123.9.215 1.304.276.404.049.661.098.771.146.122.049.184.147.184.294 0 .135-.062.214-.184.239h-9.2c-.123-.025-.184-.111-.184-.257 0-.22.288-.367.863-.441 1.322-.195 1.983-.893 1.983-2.091v-9.706c0-.514-.281-.869-.844-1.064-.245-.086-.508-.153-.79-.202-.282-.061-.508-.116-.679-.165-.16-.049-.264-.092-.313-.129-.036-.049-.055-.14-.055-.275 0-.147.092-.269.276-.367l4.683-2.202c.146-.073.238-.11.275-.11.208 0 .312.147.312.441v2.972c0 .147.037.22.11.22.098 0 .349-.287.753-.862 1.163-1.627 2.124-2.44 2.883-2.44.429 0 1.084.171 1.965.513.894.343 1.341.63 1.341.863 0 .281-.141.709-.423 1.284-.281.575-.563.862-.844.862z"/><path d="m346.316 121.795c.134.036.202.122.202.257 0 .134-.013.226-.037.275-.025.037-.086.073-.184.11-.085.024-.214.049-.385.073-.159.025-.417.074-.772.147-.355.061-.673.306-.954.734-.282.428-.582 1.021-.9 1.78l-8.631 21.375-1.194 2.532c-.306.648-.949.972-1.928.972-.429 0-.771-.141-1.028-.422-.258-.281-.386-.618-.386-1.009 0-.379.092-.661.275-.844.196-.171.423-.312.68-.422s.52-.214.789-.312c.282-.086.594-.294.937-.624.343-.318.545-.556.606-.715 2.057-4.599 3.085-7.003 3.085-7.211s-.122-.465-.367-.771l-6.06-12.641c-.453-1.235-1.231-2.03-2.332-2.385-.086-.025-.19-.043-.313-.055-.514-.049-.771-.202-.771-.459s.147-.385.441-.385h8.172c.098 0 .147.098.147.293 0 .184-.086.312-.257.386-.172.061-.551.091-1.139.091-.943 0-1.414.367-1.414 1.101l.165.441 4.756 10.182c.245.624.49.606.735-.055.024-.061.178-.458.459-1.192 1.665-4.22 2.596-6.66 2.791-7.321.209-.66.313-1.156.313-1.486s-.178-.679-.533-1.046c-.343-.367-.82-.55-1.432-.55-.6 0-.9-.178-.9-.532 0-.208.134-.312.404-.312z"/><path d="m362.09 136.381c-1.689 1.615-3.587 2.422-5.693 2.422-.759 0-1.793-.141-3.103-.422-.208 0-.325.073-.349.22-.012.147-.024.3-.037.459v7.834c0 .918.533 1.529 1.598 1.835.465.122.9.208 1.304.257.404.061.661.116.771.165.122.049.184.141.184.275 0 .147-.062.233-.184.257h-9.2c-.123-.024-.184-.11-.184-.257 0-.22.288-.367.863-.44 1.322-.196 1.984-.893 1.984-2.092v-21.999c0-.513-.282-.868-.845-1.064-.245-.085-.508-.153-.79-.201-.281-.062-.508-.117-.679-.166-.159-.049-.264-.091-.312-.128-.037-.049-.056-.141-.056-.275 0-.147.092-.269.276-.367l4.683-2.239c.098-.049.196-.073.293-.073.196 0 .294.147.294.44v2.33c0 .135.068.202.202.202.147 0 .49-.177 1.029-.532 1.554-1.003 3.17-1.504 4.848-1.504 1.175 0 2.252.477 3.232 1.431 1.285 1.247 2.142 2.984 2.571 5.211.122.636.183 1.314.183 2.036 0 .71-.116 1.462-.349 2.257-.465 1.578-1.31 2.954-2.534 4.128zm-5.252-13.155c-1.665 0-2.975.477-3.93 1.431v10.311c0 .612.104 1.009.312 1.193.539.465 1.366.826 2.48 1.082 2.203.502 3.917-.024 5.141-1.577.87-1.114 1.304-2.459 1.304-4.037 0-3.07-.691-5.37-2.075-6.899-.832-.929-1.91-1.431-3.232-1.504z"/><path d="m372.741 124.198c-.073 0-.11.055-.11.165v10.128c0 .734.159 1.309.477 1.725.331.416.747.624 1.249.624s.937-.08 1.304-.239c.379-.171.704-.354.973-.55.282-.196.533-.373.753-.532.221-.172.416-.257.588-.257.171 0 .257.043.257.128 0 .294-.031.483-.092.569-1.469 1.896-2.889 2.844-4.26 2.844-1.359 0-2.388-.428-3.085-1.284-.686-.869-1.029-1.902-1.029-3.101v-10.22h-1.377c-.343 0-.527-.11-.551-.33-.012-.22.024-.361.11-.422.649-.416 1.543-1.162 2.681-2.238.123-.135.288-.337.496-.606s.508-.636.9-1.101c.404-.464.71-.697.918-.697s.312.086.312.257c0 .024-.208.826-.624 2.403 0 .221.098.337.294.349h4.683c.538 0 .808.758.808 2.275 0 .074-.049.11-.147.11z"/></g><path d="m41.6162 14.7373h66.8935v67.8267h-66.8935z" fill="#fff"/><g fill="#222"><path d="m35.6377.358887h9.97338v99.6735h-9.97338z"/><path d="m125.398 80.0977h9.96735v99.7338h-9.96735z" transform="matrix(0 1 -1 0 205.4957 -45.3003)"/><path d="m0 0h9.97339v99.6735h-9.97339z" transform="matrix(-.999988 -.00489178 .00489771 -.999988 115.15 100.257)"/><path d="m0 0h9.96735v99.7338h-9.96735z" transform="matrix(.00489775 -.999988 .999988 .00489183 25.7812 20.0806)"/></g><path d="m0 0h39.3867v40.7768h-39.3867z" fill="#a5a6a8" transform="matrix(.70732 -.706893 .70732 .706893 47.3218 49.9053)"/><ellipse cx="75.3936" cy="50.3969" fill="#fff" rx="6.73203" ry="6.72796"/><g fill="#222"><path d="m11.7383 138.155v-.513c0-.098.0489-.147.1469-.147h.404c.5141-.037 1.0405-.055 1.5792-.055.5386-.012 1.0283-.08 1.469-.202 1.0039-.293 1.5058-1.027 1.5058-2.202v-19.337c0-1.211-.7161-1.982-2.1485-2.312-.404-.085-.8141-.159-1.2303-.22h-.3856c-.098 0-.1469-.049-.1469-.147v-.44c0-.098.0489-.147.1469-.147h17.4633c.2203 0 .3795.043.4774.129.0979.073.1591.244.1836.513l.3306 5.321c0 .122-.0919.183-.2755.183s-.3183-.055-.404-.165c-.0734-.122-.1714-.569-.2938-1.339-.1102-.771-.3183-1.413-.6243-1.927-.3061-.513-.8447-.837-1.616-.972h-7.6574c-.1591 0-.2387.08-.2387.239v9.485c0 .122.0612.183.1836.183h6.3537c1.6404 0 2.4606-.954 2.4606-2.862 0-.098.049-.147.1469-.147h.4407c.098 0 .1469.049.1469.147v7.853c0 .098-.0489.146-.1469.146h-.4407c-.0979 0-.1469-.048-.1469-.146 0-1.811-.5264-2.856-1.5792-3.138-.2938-.073-.606-.11-.9365-.11h-6.2986c-.1224 0-.1836.061-.1836.184v8.935c0 .917.4224 1.437 1.2671 1.559.2448.037.5019.055.7712.055h6.1149c1.2609 0 2.2403-.556 2.9381-1.669.5019-.795.808-1.707.9181-2.734.0368-.342.2204-.514.5509-.514.1469 0 .2204.08.2204.239l-.606 6.164c-.0734.172-.1591.257-.2571.257h-20.4564c-.098 0-.1469-.049-.1469-.147z"/><path d="m49.5845 132.523-.0367-3.871c0-1.578-.1346-2.685-.404-3.321-.2693-.636-.6121-1.113-1.0283-1.431-.4162-.33-.9794-.495-1.6894-.495-.6978 0-2.1852.55-4.4622 1.651-.3061.183-.4652.354-.4775.513v9.871c0 1.235.6611 1.945 1.9832 2.128.5754.086.8631.227.8631.422 0 .184-.0612.288-.1836.312h-8.1899c-.1225-.024-.1837-.11-.1837-.257 0-.232.2877-.391.8631-.477 1.3221-.183 1.9832-.893 1.9832-2.128v-10.531c0-.514-.2816-.868-.8447-1.064-.2448-.086-.508-.153-.7896-.202-.2816-.061-.5081-.116-.6794-.165-.1592-.049-.2633-.092-.3122-.129-.0367-.048-.0551-.14-.0551-.275 0-.146.0918-.269.2754-.367l4.6826-2.201c.1469-.074.2387-.11.2755-.11.2081 0 .3121.146.3121.44v2.862c.0368.122.0857.184.1469.184.0735 0 .3367-.111.7896-.331 1.0529-.526 2.1118-1.033 3.1769-1.522 1.065-.49 1.9464-.734 2.6442-.734 2.8279 0 4.2419 2.574 4.2419 7.724l-.1653 5.357v1.064c0 .954.4775 1.578 1.4324 1.871.4039.135.7896.233 1.1568.294.3795.049.6244.098.7345.147.1225.049.1837.147.1837.293 0 .147-.0612.233-.1837.257h-8.8509c-.1225-.024-.1837-.11-.1837-.257 0-.232.2877-.391.8631-.477 1.3099-.183 1.9648-.941 1.9648-2.275.098-.611.1469-1.535.1469-2.77z"/><path d="m71.8957 123.496c0 .856-.4959 1.285-1.4875 1.285-.5019 0-.9303-.141-1.2854-.422-.3427-.294-.6121-.539-.8079-.734-.1837-.208-.3795-.398-.5877-.569-.8814-.722-1.9587-.801-3.2319-.239-1.2609.563-2.2341 1.762-2.9197 3.596-.3795 1.016-.5692 2.025-.5692 3.028 0 2.152.4896 3.914 1.469 5.284.9794 1.357 2.479 2.036 4.499 2.036 1.5057 0 2.8585-.673 4.0582-2.018.3672-.404.5876-.606.6611-.606.0734 0 .153.037.2387.111.0857.073.1285.183.1285.33 0 .134-.0367.238-.1102.312-1.873 2.605-4.2296 3.908-7.0697 3.908-2.0567 0-3.7461-.765-5.0682-2.294-1.3099-1.529-1.9649-3.278-1.9649-5.247.0123-3.645.8937-6.269 2.6443-7.871 1.5425-1.406 3.7399-2.11 6.5923-2.11 1.7629 0 2.932.178 3.5074.532.5754.355.9793.802 1.2119 1.34.0612.122.0919.238.0919.348z"/><path d="m85.7965 125.147c-.1469-.024-.3612-.103-.6427-.238-1.0161-.465-1.8118-.697-2.3872-.697s-1.1814.361-1.818 1.082c-.6243.71-.9365 1.352-.9365 1.927v8.292c0 .918.5326 1.529 1.5976 1.835.4652.122.8998.214 1.3038.275.404.049.6611.098.7712.147.1225.049.1837.147.1837.294 0 .134-.0612.214-.1837.238h-9.1999c-.1224-.024-.1836-.11-.1836-.257 0-.22.2877-.367.8631-.44 1.3221-.196 1.9832-.893 1.9832-2.092v-9.705c0-.514-.2816-.868-.8447-1.064-.2449-.086-.5081-.153-.7896-.202-.2816-.061-.5081-.116-.6795-.165-.1591-.049-.2632-.092-.3121-.129-.0368-.048-.0551-.14-.0551-.275 0-.146.0918-.269.2754-.367l4.6826-2.201c.1469-.074.2387-.11.2755-.11.2081 0 .3121.146.3121.44v2.972c0 .147.0368.22.1102.22.0979 0 .3489-.287.7529-.862 1.163-1.627 2.124-2.44 2.883-2.44.4285 0 1.0834.171 1.9648.514.8937.342 1.3405.63 1.3405.862 0 .281-.1407.709-.4223 1.284s-.5631.862-.8447.862z"/><path d="m106.29 121.79c.134.037.202.122.202.257 0 .134-.013.226-.037.275-.025.037-.086.073-.184.11-.085.025-.214.049-.385.074-.159.024-.417.073-.772.146-.355.061-.673.306-.954.734-.282.428-.582 1.021-.9 1.78l-8.6309 21.374-1.1936 2.532c-.306.648-.9487.972-1.9281.972-.4285 0-.7713-.14-1.0283-.422-.2571-.281-.3857-.617-.3857-1.009 0-.379.0919-.66.2755-.844.1959-.171.4223-.312.6794-.422s.5203-.214.7896-.312c.2816-.085.5938-.293.9365-.623.3428-.319.5448-.557.606-.716 2.0567-4.599 3.085-7.002 3.085-7.21s-.1224-.465-.3672-.771l-6.0598-12.641c-.453-1.235-1.2304-2.03-2.3322-2.385-.0856-.024-.1897-.043-.3121-.055-.5142-.049-.7713-.202-.7713-.459s.1469-.385.4407-.385h8.1716c.0979 0 .1469.098.1469.294 0 .183-.0857.311-.2571.385-.1714.061-.5509.092-1.1385.092-.9426 0-1.4139.367-1.4139 1.1l.1652.441 4.7561 10.182c.2448.624.4896.606.7345-.055.0245-.061.1775-.458.4591-1.192 1.6646-4.22 2.5956-6.66 2.7916-7.321.208-.66.312-1.156.312-1.486s-.178-.679-.533-1.046c-.343-.367-.82-.55-1.4321-.55-.5999 0-.8998-.177-.8998-.532 0-.208.1346-.312.404-.312z"/><path d="m122.064 136.376c-1.69 1.614-3.587 2.422-5.693 2.422-.759 0-1.793-.141-3.103-.422-.208 0-.325.073-.349.22-.013.147-.025.299-.037.458v7.835c0 .917.533 1.528 1.598 1.834.465.123.899.208 1.303.257.404.061.661.116.772.165.122.049.183.141.183.275 0 .147-.061.233-.183.257h-9.2c-.123-.024-.184-.11-.184-.257 0-.22.288-.367.863-.44 1.322-.196 1.983-.893 1.983-2.091v-21.998c0-.514-.281-.869-.844-1.064-.245-.086-.508-.153-.79-.202-.282-.061-.508-.117-.679-.165-.16-.049-.264-.092-.313-.129-.036-.049-.055-.141-.055-.275 0-.147.092-.269.276-.367l4.682-2.238c.098-.049.196-.074.294-.074.196 0 .294.147.294.441v2.33c0 .134.067.201.202.201.147 0 .49-.177 1.028-.532 1.555-1.003 3.171-1.504 4.848-1.504 1.175 0 2.253.477 3.232 1.431 1.285 1.248 2.142 2.984 2.571 5.211.122.636.184 1.314.184 2.036 0 .709-.117 1.462-.349 2.257-.466 1.578-1.31 2.954-2.534 4.128zm-5.252-13.155c-1.665 0-2.975.477-3.93 1.431v10.311c0 .612.104 1.009.312 1.193.539.464 1.365.825 2.479 1.082 2.204.502 3.918-.024 5.142-1.578.869-1.113 1.304-2.458 1.304-4.036 0-3.07-.692-5.37-2.075-6.898-.833-.93-1.91-1.432-3.232-1.505z"/><path d="m132.714 124.193c-.073 0-.11.055-.11.166v10.127c0 .734.159 1.309.477 1.725.331.416.747.623 1.249.623s.937-.079 1.304-.238c.379-.171.704-.355.973-.55.282-.196.533-.374.753-.533.22-.171.416-.256.588-.256.171 0 .257.042.257.128 0 .294-.031.483-.092.569-1.469 1.896-2.889 2.844-4.26 2.844-1.359 0-2.388-.429-3.085-1.285-.686-.868-1.029-1.902-1.029-3.1v-10.22h-1.377c-.343 0-.526-.11-.551-.33-.012-.22.025-.361.11-.422.649-.416 1.543-1.162 2.681-2.238.123-.135.288-.336.496-.606.208-.269.508-.636.9-1.1.404-.465.71-.698.918-.698s.312.086.312.257c0 .025-.208.826-.624 2.404 0 .22.098.336.294.348h4.682c.539 0 .808.759.808 2.275 0 .074-.049.11-.147.11z"/></g></svg>