<svg fill="none" height="71" viewBox="0 0 71 71" width="71" xmlns="http://www.w3.org/2000/svg" xmlns:xlink="http://www.w3.org/1999/xlink"><linearGradient id="a" gradientUnits="userSpaceOnUse" x1="11.9151" x2="13.7657" y1="8.50074" y2="19.4594"><stop offset=".00428557" stop-color="#326280"/><stop offset="1" stop-color="#212e53"/></linearGradient><g fill="#1e1a28"><path clip-rule="evenodd" d="m36.5249 67.9128c18.5353 0 33.5612-15.0258 33.5612-33.5611s-15.0259-33.561173-33.5612-33.561173-33.56115 15.025873-33.56115 33.561173 15.02585 33.5611 33.56115 33.5611zm0-1.2429c17.8488 0 32.3182-14.4694 32.3182-32.3182 0-17.8489-14.4694-32.31826-32.3182-32.31826-17.8489 0-32.31824 14.46936-32.31824 32.31826 0 17.8488 14.46934 32.3182 32.31824 32.3182z" fill-rule="evenodd"/><path clip-rule="evenodd" d="m34.4036 70.0342c18.5353 0 33.5611-15.0259 33.5611-33.5612s-15.0258-33.56113-33.5611-33.56113c-18.5354 0-33.561193 15.02583-33.561193 33.56113s15.025793 33.5612 33.561193 33.5612zm0-1.243c17.8488 0 32.3182-14.4694 32.3182-32.3182 0-17.8489-14.4694-32.31826-32.3182-32.31826-17.8489 0-32.31824 14.46936-32.31824 32.31826 0 17.8488 14.46934 32.3182 32.31824 32.3182z" fill-rule="evenodd"/><path d="m33.5053 29.2145c.0256-.7939.0384-1.4597.0384-1.9974.0256-.5378.0384-1.0115.0384-1.4212.0256-.4354.0512-.8323.0768-1.1908.0256-.3841.0512-.8194.0768-1.306.0512-.4353.0768-.8322.0768-1.1907.0257-.3841.0257-.6146 0-.6914 0-.1537-.0256-.2177-.0768-.1921-.0256.0256-.1024.1921-.2304.4994-.0769.2048-.1921.4609-.3457.7682-.1281.3073-.2561.6018-.3842.8835-.3841.845-.7298 1.6132-1.0371 2.3046-.2816.6658-.6017 1.4085-.9602 2.2279-.2049.4353-.397.8706-.5762 1.306-.1793.4097-.3073.6914-.3841.845-.1793.3585-.2689.5762-.2689.653l-.2305.5378c-.0512.128-.1408.3329-.2689.6146-.1024.2816-.2176.5633-.3457.845-.1024.2817-.2048.525-.3072.7298-.0769.1793-.1281.2945-.1537.3457-.0256.0256-.0768.1281-.1536.3073-.0769.1793-.1665.3969-.2689.653s-.2049.5122-.3073.7682c-.1024.2561-.1793.4482-.2305.5762-.0768.128-.1536.2817-.2304.4609-.0769.1537-.1409.2945-.1921.4226-.0512.128-.1152.2688-.1921.4225-.0512.1536-.1024.2945-.1536.4225s-.1536.3457-.3073.653c-.128.2817-.2561.5762-.3841.8835s-.2945.6914-.4993 1.1523c-.2049.4353-.397.8322-.5762 1.1907-.1537.3329-.3201.6787-.4994 1.0372-.1792.3585-.3073.6273-.3841.8066-.1792.3841-.3713.7938-.5761 1.2292-.2049.4353-.3457.717-.4226.845-.0256.0512-.0768.1536-.1536.3073-.0768.1536-.1665.3329-.2689.5378-.0768.1792-.1664.3457-.2689.4993-.0768.1792-.1408.2945-.192.3457s-.1025.1152-.1537.1921c-.0512.1024-.0896.1792-.1152.2304-.0512.1281-.1665.3329-.3457.6146-.1793.3073-.4609.7682-.8451 1.3828-.3841.589-.7682 1.0243-1.1523 1.306-.3585.3073-.7938.5378-1.306.6914-.2305.0512-.4609.0768-.6914.0768s-.4481-.0256-.653-.0768c-.2048-.0256-.3841-.0896-.5377-.192-.1281-.0769-.2049-.1665-.2305-.2689 0-.0513.0512-.1537.1536-.3073.1025-.1281.2305-.2817.3842-.461.1536-.1536.2816-.2944.3841-.4225.128-.128.192-.2048.192-.2305 0-.0512.0896-.2176.2689-.4993.1793-.2561.2689-.4097.2689-.4609 0-.0256.0896-.1537.2689-.3841.1792-.2305.2688-.3586.2688-.3842 0-.0768.1665-.3713.4994-.8834.0512-.0512.1152-.1537.192-.3073.0769-.1281.1537-.2561.2305-.3841.1793-.3329.3841-.717.6146-1.1524.2561-.4353.4865-.8322.6914-1.1907.1024-.1793.2049-.3713.3073-.5762.128-.2304.2305-.4225.3073-.5762.0768-.128.1408-.2432.192-.3457.0769-.128.1281-.2176.1537-.2688.0256-.0256.0896-.1281.192-.3073.1281-.2049.2561-.4354.3841-.6914.1281-.2817.2689-.5762.4226-.8835.1792-.3073.3329-.5634.4609-.7682.1024-.2049.2177-.4225.3457-.653.128-.2561.2177-.4609.2689-.6146l.3457-.6914c.0256-.0512.064-.1408.1152-.2689.0768-.128.1537-.256.2305-.3841.0768-.128.1408-.2561.192-.3841.0513-.128.1025-.2177.1537-.2689.0256-.0512.0512-.1152.0768-.192.0512-.0769.1024-.1665.1537-.2689.1024-.2561.256-.589.4609-.9987.128-.2817.3073-.6786.5378-1.1908.2304-.5121.4225-.9474.5761-1.3059.0512-.0769.1153-.2305.1921-.461.1024-.2561.2048-.5121.3073-.7682.128-.2817.2304-.525.3073-.7298.0768-.2049.128-.3329.1536-.3841.1024-.1793.3841-.7555.8451-1.7285.4609-.9731.9986-2.1511 1.6132-3.5339.6658-1.434 1.2676-2.6376 1.8054-3.6106.5377-.9987.9218-1.6389 1.1523-1.9206.2817-.2817.653-.4865 1.1139-.6146.4866-.128.9091-.128 1.2676 0 .2305.0768.4609.2561.6914.5378.2561.2817.4225.5889.4993.9218.0513.1537.1025.3714.1537.653.0512.2817.0896.589.1152.9219.0512.3329.0897.6786.1153 1.0371.0512.3329.0896.653.1152.9603 0 .2561.0128.5762.0384.9603.0256.3585.0512.6914.0768.9987.0256.3329.0384.8706.0384 1.6132v2.4968c0 .9218-.0128 1.9205-.0384 2.9961 0 1.0499-.0128 2.087-.0384 3.1113-.0256 1.306-.0512 2.4583-.0768 3.457v2.612c.0256.7426.0512 1.4212.0768 2.0358.0256.5889.064 1.1523.1153 1.6901.0256.4353.0768.8834.1536 1.3444.0768.4609.1536.7682.2305.9218.1536.3841.256.653.3073.8067.0768.1536.1408.2304.192.2304.0256 0 .1024-.1408.2305-.4225.128-.2561.3201-.6914.5761-1.306.1281-.2817.2689-.6146.4226-.9987.1536-.3585.2945-.653.4225-.8834.1024-.2561.1921-.461.2689-.6146.0768-.1793.1152-.2817.1152-.3073.0256-.0512.0512-.1152.0768-.1921.0256-.0512.0512-.1152.0769-.192.0256-.0768.064-.1665.1152-.2689.2048-.3329.3073-.5506.3073-.653l.0768-.2305c.0256-.1024.1024-.256.2305-.4609.0768-.2049.1792-.4481.3073-.7298.128-.2817.2304-.525.3073-.7298.1536-.3841.2816-.7042.3841-.9603.1024-.2561.2176-.4865.3457-.6914.0256-.0768.0512-.1408.0768-.1921.0256-.0768.0384-.128.0384-.1536 0-.0512.0896-.2817.2689-.6914.1792-.3585.2689-.589.2689-.6914 0-.0256.0512-.1665.1536-.4225.0512-.0769.1024-.2049.1536-.3841.0769-.1793.1537-.3586.2305-.5378.1281-.4353.2433-.7554.3457-.9603.2049-.4865.461-1.1011.7682-1.8437.3073-.7427.6402-1.6005.9987-2.5736.1025-.2817.2049-.5634.3073-.845.1025-.3073.1793-.5122.2305-.6146.128-.2561.1921-.4225.1921-.4994 0-.0256.0256-.1152.0768-.2688.0512-.0513.1024-.1665.1536-.3458.0768-.2048.1665-.4225.2689-.6529.1024-.2817.2177-.589.3457-.9219.1536-.3585.2945-.7042.4225-1.0371.1281-.3329.2433-.6146.3457-.8451.1025-.256.1793-.4097.2305-.4609.0256-.0512.064-.1408.1152-.2689.0769-.1536.1537-.2945.2305-.4225.2049-.4353.3457-.717.4225-.8451.0768-.1536.1281-.2432.1537-.2688s.0768-.1025.1536-.2305c.0768-.1537.1665-.3329.2689-.5378.3841-.717.781-1.3315 1.1907-1.8437.4354-.5121.8323-.8579 1.1908-1.0371.2305-.1024.4225-.1665.5762-.1921.1792-.0256.4481-.0384.8066-.0384.4609 0 .8194.0512 1.0755.1537.2817.1024.525.2688.7298.4993.1025.1281.1537.2049.1537.2305s-.0256.1024-.0768.2305c-.0513.0512-.1409.128-.2689.2304-.1281.1025-.2689.1793-.4226.2305-.3072.1792-.7938.5762-1.4596 1.1907-.2561.2817-.4737.5122-.653.6914-.1792.1793-.2689.2817-.2689.3073 0 .0512-.0384.1537-.1152.3073-.0768.1281-.1792.2817-.3073.461-.2561.3841-.4609.7298-.6146 1.0371-.1536.3073-.3201.6402-.4993.9987-.0512.1536-.1537.3841-.3073.6914-.128.2816-.2561.5633-.3841.845s-.2433.525-.3457.7298c-.0768.1793-.1152.2817-.1152.3073 0 .0512-.0897.2817-.2689.6914-.1025.1537-.2049.3457-.3073.5762-.0768.2305-.1409.4097-.1921.5377-.0512.1281-.1024.2433-.1536.3457-.0256.1025-.064.2177-.1152.3458-.0513.128-.1153.2944-.1921.4993-.0768.1793-.1921.4225-.3457.7298-.0768.1793-.1921.4609-.3457.8451-.1537.3585-.3073.717-.4609 1.0755-.1537.3585-.2945.6914-.4226.9987-.128.3073-.2176.5121-.2688.6146-.1281.2304-.2561.4993-.3842.8066-.1024.3073-.3329.8706-.6914 1.6901-.1536.3585-.3073.7042-.4609 1.0371s-.2561.5634-.3073.6914l-.2305.5378c0 .0768-.064.2688-.192.5761-.0768.1281-.1665.3073-.2689.5378-.1024.2048-.1921.4097-.2689.6146-.0768.2048-.1792.4481-.3073.7298-.1024.2561-.2048.4865-.3073.6914l-.3072.7682c0 .0512-.2049.525-.6146 1.4212-.3073.6658-.6018 1.2932-.8835 1.8822-.2561.589-.4481 1.0499-.5762 1.3828-.1792.4353-.3072.6914-.3841.7682-.0512 0-.0768.0512-.0768.1537 0 .0512-.0384.1408-.1152.2688-.0512.1537-.1281.3201-.2305.4994-.1024.1792-.2049.3457-.3073.4993-.0768.1793-.1536.3073-.2305.3841-.256.2817-.6401.5122-1.1523.6914-.3329.1281-.6146.2049-.845.2305-.2305.0256-.525 0-.8835-.0768-.3841-.0768-.717-.1793-.9987-.3073s-.4481-.2561-.4993-.3841c-.0513-.128-.1025-.1921-.1537-.1921-.0256 0-.0768-.064-.1536-.192-.0768-.1281-.1665-.2817-.2689-.461-.0768-.1792-.1537-.3585-.2305-.5377-.0512-.1537-.0768-.2561-.0768-.3073 0-.1024-.0512-.2817-.1536-.5378-.1281-.2048-.2561-.6145-.3842-1.2291-.128-.589-.2304-1.178-.3072-1.7669-.0513-.3329-.0769-.8323-.0769-1.4981s.0128-1.4084.0384-2.2278c.0257-.8451.0513-1.7029.0769-2.5736.0512-.8707.1152-1.6645.192-2.3815.0512-.4353.0896-.8707.1153-1.306.0256-.4609.0512-.8194.0768-1.0755.0256-.2049.0384-.5122.0384-.9219.0256-.4097.064-.7938.1152-1.1523.0256-.3585.0512-.8963.0768-1.6133.0257-.7426.0385-1.4596.0385-2.151z"/></g><path d="m20.3166 15.4393c-2.0961 3.9649-7.0096 5.4797-10.97439 3.3836-3.96485-2.0962-5.4797-7.0096-3.38352-10.97449 2.09617-3.96484 7.00961-5.47969 10.97441-3.38351 3.9649 2.09617 5.4797 7.0096 3.3835 10.9744z" fill="url(#a)"/></svg>