<svg fill="none" height="749" viewBox="0 0 625 749" width="625" xmlns="http://www.w3.org/2000/svg"><path d="m.307007 0h624v749h-624z" fill="#ebaca2" fill-opacity=".5"/><path d="m.307007 0h624v749h-624z" fill="#ebebeb" opacity=".25"/><g fill="#fff"><path d="m50.583 661.382c-1.9227 0-3.584-.411-4.984-1.232-1.3813-.84-2.436-1.979-3.164-3.416-.728-1.438-1.092-3.062-1.092-4.872 0-1.867.4013-3.566 1.204-5.096.8027-1.55 1.904-2.763 3.304-3.64 1.4187-.896 2.996-1.344 4.732-1.344 1.6427 0 3.0147.214 4.116.644 1.1013.41 1.9413.952 2.52 1.624.336.429.5413.961.616 1.596.0747.634.112 1.521.112 2.66h-.84c-.3547-1.718-1.008-3.024-1.96-3.92s-2.1933-1.344-3.724-1.344c-1.904 0-3.4067.672-4.508 2.016s-1.652 3.612-1.652 6.804c0 2.37.504 4.34 1.512 5.908s2.5573 2.352 4.648 2.352c1.3067 0 2.5013-.346 3.584-1.036 1.1013-.691 1.988-1.68 2.66-2.968l.98.756c-.896 1.568-1.9787 2.716-3.248 3.444-1.2693.709-2.8747 1.064-4.816 1.064zm16.4559-.28c-1.3627 0-2.5573-.299-3.584-.896-1.008-.616-1.7827-1.438-2.324-2.464-.5413-1.046-.812-2.212-.812-3.5s.2707-2.446.812-3.472c.5413-1.046 1.316-1.867 2.324-2.464 1.0267-.616 2.2213-.924 3.584-.924s2.548.308 3.556.924c1.0267.597 1.8107 1.418 2.352 2.464.5413 1.026.812 2.184.812 3.472s-.2707 2.454-.812 3.5c-.5413 1.026-1.3253 1.848-2.352 2.464-1.008.597-2.1933.896-3.556.896zm0-1.26c.952 0 1.68-.514 2.184-1.54.504-1.027.756-2.38.756-4.06s-.252-3.034-.756-4.06c-.504-1.027-1.232-1.54-2.184-1.54s-1.68.513-2.184 1.54c-.504 1.026-.756 2.38-.756 4.06s.252 3.033.756 4.06c.504 1.026 1.232 1.54 2.184 1.54zm9.9612-8.54c0-.952-.1306-1.652-.392-2.1-.2426-.467-.756-.7-1.54-.7h-.28v-.84h2.772c1.2134 0 2.0067.354 2.38 1.064h.112c1.0267-.896 2.2027-1.344 3.528-1.344.9147 0 1.708.177 2.38.532.6907.336 1.1854.69 1.484 1.064.448-.486.98-.868 1.596-1.148.616-.299 1.4094-.448 2.38-.448 3.2667 0 4.9 1.717 4.9 5.152v8.288h-3.64v-8.316c0-1.288-.2053-2.231-.616-2.828-.4106-.598-.952-.896-1.624-.896-.504 0-.9706.102-1.4.308-.4293.186-.7653.438-1.008.756.0374.074.112.28.224.616.1494.56.224 1.25.224 2.072v8.288h-3.64v-8.316c0-1.288-.2053-2.231-.616-2.828-.4106-.598-.952-.896-1.624-.896-.392 0-.8026.121-1.232.364-.4106.224-.7186.476-.924.756l.084.392c.0747.224.112.588.112 1.092v9.436h-3.64zm24.9249-5.152c-.672 0-1.195-.206-1.568-.616-.355-.411-.5321-.915-.5321-1.512 0-.486.14-.868.4201-1.148.299-.28.672-.42 1.12-.42.672 0 1.185.205 1.54.616.373.41.56.914.56 1.512 0 .485-.149.868-.448 1.148-.28.28-.644.42-1.092.42zm-1.82 5.152c0-.952-.1307-1.652-.3921-2.1-.2613-.467-.784-.7-1.568-.7h-.28v-.84h3.3601c.672 0 1.185.112 1.54.336s.607.597.756 1.12c.149.504.224 1.232.224 2.184v9.52h-3.64zm7.493 0c0-.952-.131-1.652-.392-2.1-.243-.467-.756-.7-1.54-.7h-.28v-.84h2.772c.634 0 1.129.084 1.484.252.373.149.662.41.868.784.952-.878 2.314-1.316 4.088-1.316 1.773 0 3.098.42 3.976 1.26.896.821 1.344 2.118 1.344 3.892v8.288h-3.64v-8.316c0-1.288-.243-2.231-.728-2.828-.467-.598-1.111-.896-1.932-.896-.579 0-1.092.084-1.54.252-.43.149-.775.354-1.036.616l.084.392c.074.224.112.588.112 1.092v9.688h-3.64zm21.117 15.12c-2.128 0-3.808-.346-5.04-1.036-1.213-.672-1.82-1.774-1.82-3.304 0-.934.374-1.708 1.12-2.324.747-.616 1.634-1.055 2.66-1.316-.84-.262-1.26-.775-1.26-1.54 0-.635.374-1.102 1.12-1.4-.802-.28-1.474-.766-2.016-1.456-.522-.691-.784-1.456-.784-2.296 0-1.531.542-2.642 1.624-3.332 1.102-.691 2.567-1.036 4.396-1.036h5.88v.756l-2.52.336c.784.298 1.419.756 1.904 1.372.504.616.756 1.25.756 1.904 0 1.53-.522 2.632-1.568 3.304-1.026.672-2.51 1.008-4.452 1.008-.97 0-1.68.056-2.128.168-.448.093-.672.317-.672.672 0 .298.224.494.672.588.448.093 1.158.149 2.128.168 2.016.037 3.659.438 4.928 1.204 1.288.746 1.932 1.82 1.932 3.22 0 1.53-.616 2.632-1.848 3.304-1.213.69-2.884 1.036-5.012 1.036zm0-11.48c1.494 0 2.24-1.064 2.24-3.192 0-1.046-.205-1.848-.616-2.408-.41-.56-.952-.84-1.624-.84-.69 0-1.241.27-1.652.812-.392.541-.588 1.353-.588 2.436 0 2.128.747 3.192 2.24 3.192zm0 10.22c.971 0 1.727-.262 2.268-.784.542-.504.812-1.27.812-2.296 0-.822-.261-1.503-.784-2.044-.504-.56-1.194-.924-2.072-1.092l-1.316-.14c-.653.28-1.148.681-1.484 1.204-.336.522-.504 1.213-.504 2.072 0 1.026.271 1.792.812 2.296.542.522 1.298.784 2.268.784zm22.049-3.864c-1.046 0-2.054-.14-3.024-.42-.971-.262-1.764-.644-2.38-1.148-.616-.523-.924-1.12-.924-1.792v-3.276h.784c.28 1.904.868 3.276 1.764 4.116s2.146 1.26 3.752 1.26c1.082 0 1.941-.234 2.576-.7.634-.467.952-1.139.952-2.016 0-.747-.234-1.382-.7-1.904-.467-.523-1.195-1.092-2.184-1.708l-3.444-2.072c-1.251-.728-2.147-1.484-2.688-2.268-.523-.784-.784-1.699-.784-2.744 0-1.475.56-2.642 1.68-3.5 1.138-.859 2.669-1.288 4.592-1.288 1.045 0 2.053.14 3.024.42.97.261 1.764.653 2.38 1.176.616.504.924 1.092.924 1.764v3.276h-.784c-.318-1.904-.906-3.276-1.764-4.116-.859-.84-2.016-1.26-3.472-1.26-1.008 0-1.811.242-2.408.728-.579.485-.868 1.148-.868 1.988 0 .728.224 1.334.672 1.82.466.466 1.213.998 2.24 1.596l3.444 2.044c1.306.765 2.24 1.512 2.8 2.24.578.709.868 1.568.868 2.576 0 1.624-.616 2.902-1.848 3.836-1.214.914-2.94 1.372-5.18 1.372zm15.779-.196c-1.363 0-2.558-.299-3.584-.896-1.008-.616-1.783-1.438-2.324-2.464-.542-1.046-.812-2.212-.812-3.5s.27-2.446.812-3.472c.541-1.046 1.316-1.867 2.324-2.464 1.026-.616 2.221-.924 3.584-.924 1.362 0 2.548.308 3.556.924 1.026.597 1.81 1.418 2.352 2.464.541 1.026.812 2.184.812 3.472s-.271 2.454-.812 3.5c-.542 1.026-1.326 1.848-2.352 2.464-1.008.597-2.194.896-3.556.896zm0-1.26c.952 0 1.68-.514 2.184-1.54.504-1.027.756-2.38.756-4.06s-.252-3.034-.756-4.06c-.504-1.027-1.232-1.54-2.184-1.54s-1.68.513-2.184 1.54c-.504 1.026-.756 2.38-.756 4.06s.252 3.033.756 4.06c.504 1.026 1.232 1.54 2.184 1.54zm15.449 1.26c-1.363 0-2.557-.299-3.584-.896-1.008-.616-1.783-1.438-2.324-2.464-.541-1.046-.812-2.212-.812-3.5s.271-2.446.812-3.472c.541-1.046 1.316-1.867 2.324-2.464 1.027-.616 2.221-.924 3.584-.924s2.548.308 3.556.924c1.027.597 1.811 1.418 2.352 2.464.541 1.026.812 2.184.812 3.472s-.271 2.454-.812 3.5c-.541 1.026-1.325 1.848-2.352 2.464-1.008.597-2.193.896-3.556.896zm0-1.26c.952 0 1.68-.514 2.184-1.54.504-1.027.756-2.38.756-4.06s-.252-3.034-.756-4.06c-.504-1.027-1.232-1.54-2.184-1.54s-1.68.513-2.184 1.54c-.504 1.026-.756 2.38-.756 4.06s.252 3.033.756 4.06c.504 1.026 1.232 1.54 2.184 1.54zm9.961-8.54c0-.952-.13-1.652-.392-2.1-.242-.467-.756-.7-1.54-.7h-.28v-.84h2.772c.635 0 1.13.084 1.484.252.374.149.663.41.868.784.952-.878 2.315-1.316 4.088-1.316 1.774 0 3.099.42 3.976 1.26.896.821 1.344 2.118 1.344 3.892v8.288h-3.64v-8.316c0-1.288-.242-2.231-.728-2.828-.466-.598-1.11-.896-1.932-.896-.578 0-1.092.084-1.54.252-.429.149-.774.354-1.036.616l.084.392c.075.224.112.588.112 1.092v9.688h-3.64z"/><path d="m51.584 683.676h-4.578v13.146h-1.743v-13.146h-4.578v-1.554h10.899zm11.0184 1.806c0 .35-.056.707-.168 1.071s-.28.707-.504 1.029c-.224.308-.511.581-.861.819s-.763.42-1.239.546v.084c.42.07.819.189 1.197.357.392.168.735.399 1.029.693s.532.651.714 1.071.273.917.273 1.491c0 .756-.161 1.414-.483 1.974-.308.546-.721.994-1.239 1.344-.504.35-1.085.609-1.743.777s-1.33.252-2.016.252c-.238 0-.518 0-.84 0s-.658-.014-1.008-.042c-.35-.014-.7-.042-1.05-.084-.35-.028-.658-.077-.924-.147v-14.469c.518-.084 1.12-.154 1.806-.21s1.435-.084 2.247-.084c.546 0 1.099.049 1.659.147.574.084 1.092.259 1.554.525.462.252.84.609 1.134 1.071.308.462.462 1.057.462 1.785zm-4.872 9.996c.448 0 .882-.049 1.302-.147.42-.112.791-.28 1.113-.504.322-.238.574-.525.756-.861.196-.336.294-.735.294-1.197 0-.574-.119-1.036-.357-1.386-.224-.35-.525-.623-.903-.819-.364-.196-.777-.329-1.239-.399s-.924-.105-1.386-.105h-1.827v5.271c.098.028.238.049.42.063s.378.028.588.042.427.028.651.042zm-1.155-6.888c.238 0 .525-.007.861-.021s.616-.035.84-.063c.336-.112.651-.245.945-.399.294-.168.553-.357.777-.567.238-.224.42-.476.546-.756.14-.294.21-.609.21-.945 0-.462-.091-.84-.273-1.134-.168-.308-.399-.553-.693-.735s-.63-.308-1.008-.378c-.378-.084-.763-.126-1.155-.126-.462 0-.889.014-1.281.042-.378.014-.665.042-.861.084v4.998zm16.4217 4.158h-5.418l-1.47 4.074h-1.722l5.565-14.931h.798l5.586 14.931h-1.827zm-4.851-1.512h4.326l-1.638-4.473-.525-2.226h-.021l-.525 2.268z"/></g></svg>